<?xml version="1.0" encoding="UTF-8" standalone="no"?>
<svg
   xmlns:dc="http://purl.org/dc/elements/1.1/"
   xmlns:cc="http://creativecommons.org/ns#"
   xmlns:rdf="http://www.w3.org/1999/02/22-rdf-syntax-ns#"
   xmlns:svg="http://www.w3.org/2000/svg"
   xmlns="http://www.w3.org/2000/svg"
   viewBox="0 0 195.06667 75.866669"
   height="75.866669"
   width="195.06667"
   xml:space="preserve"
   id="svg2"
   version="1.1"><metadata
     id="metadata8"><rdf:RDF><cc:Work
         rdf:about=""><dc:format>image/svg+xml</dc:format><dc:type
           rdf:resource="http://purl.org/dc/dcmitype/StillImage" /></cc:Work></rdf:RDF></metadata><defs
     id="defs6"><clipPath
       id="clipPath18"
       clipPathUnits="userSpaceOnUse"><path
         id="path16"
         d="M 0,56.9 H 146.3 V 0 H 0 Z" /></clipPath></defs><g
     transform="matrix(1.3333333,0,0,-1.3333333,0,75.866667)"
     id="g10"><g
       id="g12"><g
         clip-path="url(#clipPath18)"
         id="g14"><g
           transform="translate(60,29.9)"
           id="g20"><path
             id="path22"
             style="fill:#20295c;fill-opacity:1;fill-rule:nonzero;stroke:none"
             d="m 0,0 c 5.1,0 8.3,3.4 8.3,7.7 v 0.1 c 0,4.3 -3.2,7.8 -8.3,7.8 H -4.6 V 0 Z M -6,17 H 0 C 5.7,17 9.6,13.1 9.6,8 V 7.9 c 0,-5.1 -4,-9 -9.6,-9 h -6 z" /></g><g
           transform="translate(83,33.7)"
           id="g24"><path
             id="path26"
             style="fill:#20295c;fill-opacity:1;fill-rule:nonzero;stroke:none"
             d="M 0,0 V 1.5 C -1.1,1.8 -2.6,2.1 -4.5,2.1 -7.3,2.1 -8.9,0.9 -8.9,-1 v -0.1 c 0,-1.9 1.8,-3 3.9,-3 2.8,0 5,1.7 5,4.1 m -10.2,-1.1 v 0 c 0,2.8 2.3,4.4 5.8,4.4 1.8,0 3.1,-0.3 4.4,-0.6 v 0.6 c 0,2.7 -1.6,4 -4.4,4 -1.6,0 -2.9,-0.4 -4.1,-1 l -0.4,1.1 c 1.5,0.7 2.8,1.1 4.6,1.1 C -2.5,8.5 -1.1,8 -0.2,7 0.7,6.1 1.2,4.9 1.2,3.3 V -5 H 0 v 2.2 c -0.9,-1.3 -2.5,-2.5 -5.1,-2.5 -2.4,0 -5.1,1.4 -5.1,4.2" /></g><g
           transform="translate(89.3,32.1)"
           id="g28"><path
             id="path30"
             style="fill:#20295c;fill-opacity:1;fill-rule:nonzero;stroke:none"
             d="M 0,0 V 8.6 H -1.9 V 9.8 H 0 V 14 H 1.3 V 9.8 H 5.9 V 8.6 H 1.3 V 0.1 c 0,-1.9 1.1,-2.6 2.7,-2.6 0.7,0 1.2,0.2 2,0.4 V -3.3 C 5.3,-3.6 4.7,-3.7 3.8,-3.7 1.7,-3.6 0,-2.5 0,0" /></g><g
           transform="translate(109.9,35.3)"
           id="g32"><path
             id="path34"
             style="fill:#20295c;fill-opacity:1;fill-rule:nonzero;stroke:none"
             d="m 0,0 v 0 c 0,3.3 -2.4,5.8 -5.4,5.8 -3.1,0 -5.4,-2.6 -5.4,-5.7 V 0 c 0,-3.2 2.4,-5.7 5.4,-5.7 3.3,0 5.4,2.6 5.4,5.7 m -12.1,0 v 0 c 0,3.8 2.8,7 6.8,7 3.9,0 6.8,-3.2 6.8,-6.9 V 0 c 0,-3.7 -2.8,-6.9 -6.8,-6.9 -4,0 -6.8,3.2 -6.8,6.9" /></g><g
           transform="translate(114,30.3)"
           id="g36"><path
             id="path38"
             style="fill:#20295c;fill-opacity:1;fill-rule:nonzero;stroke:none"
             d="m 0,0 0.8,1 c 1.5,-1.1 3.1,-1.7 4.7,-1.7 1.8,0 3.2,0.9 3.2,2.5 V 1.9 C 8.7,3.4 7.1,4.1 5.2,4.6 3,5.2 0.6,5.9 0.6,8.2 v 0.1 c 0,2.2 1.8,3.6 4.4,3.6 1.5,0 3.4,-0.6 4.6,-1.5 l -0.7,-1 c -1.2,0.8 -2.7,1.3 -4,1.3 -1.8,0 -3,-0.9 -3,-2.3 V 8.3 C 1.9,6.8 3.7,6.3 5.6,5.7 7.8,5.1 10,4.3 10,2 10,-0.3 8,-1.9 5.4,-1.9 3.7,-1.8 1.4,-1.1 0,0" /></g><g
           transform="translate(59.9,17.8)"
           id="g40"><path
             id="path42"
             style="fill:#20295c;fill-opacity:1;fill-rule:nonzero;stroke:none"
             d="M 0,0 H 3.7 L 1.9,5.2 Z M 4.9,-3.1 H -1 L -2.1,-6.2 H -5.6 L 0,9.1 H 4 L 9.7,-6.2 H 5.9 Z" /></g><g
           transform="translate(79,16.9)"
           id="g44"><path
             id="path46"
             style="fill:#20295c;fill-opacity:1;fill-rule:nonzero;stroke:none"
             d="M 0,0 C 0,0.4 -0.1,0.9 -0.2,1.2 -0.4,1.5 -0.5,1.8 -0.7,2.1 -1,2.4 -1.2,2.4 -1.5,2.6 -1.8,2.7 -2.1,2.8 -2.4,2.8 -2.7,2.8 -3,2.7 -3.3,2.6 -3.6,2.5 -3.8,2.3 -4.1,2.1 -4.4,1.9 -4.5,1.6 -4.6,1.2 -4.8,0.9 -4.8,0.5 -4.8,0 c 0,-0.5 0.1,-0.9 0.2,-1.2 0.2,-0.3 0.3,-0.6 0.5,-0.9 0.3,-0.3 0.5,-0.4 0.8,-0.5 0.3,-0.1 0.6,-0.1 0.9,-0.1 0.3,0 0.6,0.1 0.9,0.2 0.3,0.1 0.5,0.3 0.8,0.5 0.3,0.3 0.4,0.5 0.5,0.9 C -0.1,-0.7 0,-0.4 0,0 m -8,-5.4 v 15.7 h 3.2 V 4.4 c 0.3,0.3 0.6,0.6 1.2,0.9 0.5,0.3 1.2,0.4 1.9,0.4 0.8,0 1.5,-0.2 2.1,-0.4 C 1,5 1.5,4.6 1.9,4.1 2.3,3.6 2.7,3 2.8,2.3 3,1.6 3.1,0.8 3.1,0.1 3.1,-0.8 3,-1.4 2.8,-2.1 2.5,-2.8 2.2,-3.4 1.8,-3.9 1.4,-4.4 0.8,-4.8 0.2,-5.1 c -0.6,-0.3 -1.3,-0.4 -2.1,-0.4 -0.7,0 -1.4,0.2 -1.9,0.4 -0.5,0.3 -0.9,0.6 -1.1,1 v -1.2 z" /></g><g
           transform="translate(84.5,11.5)"
           id="g48"><path
             id="path50"
             style="fill:#20295c;fill-opacity:1;fill-rule:nonzero;stroke:none"
             d="M 0,0 V 10.8 H 3.3 V 0.1 Z m -0.3,14 c 0,0.3 0.1,0.5 0.2,0.8 0.1,0.3 0.3,0.4 0.4,0.6 0.2,0.2 0.3,0.3 0.6,0.4 0.3,0.1 0.5,0.2 0.8,0.2 0.5,0 1,-0.2 1.4,-0.6 C 3.4,15.1 3.7,14.5 3.7,14 3.7,13.5 3.5,13.1 3.1,12.6 2.8,12.3 2.2,12 1.7,12 1.4,12 1.2,12.1 0.9,12.2 0.6,12.3 0.5,12.5 0.3,12.6 0.1,12.8 0,13 -0.1,13.2 -0.2,13.4 -0.3,13.8 -0.3,14" /></g><g
           transform="translate(97.5,18.2)"
           id="g52"><path
             id="path54"
             style="fill:#20295c;fill-opacity:1;fill-rule:nonzero;stroke:none"
             d="M 0,0 C 0,0.2 -0.1,0.4 -0.2,0.6 -0.3,0.9 -0.4,1 -0.5,1.2 -0.7,1.4 -0.9,1.5 -1.2,1.6 -1.5,1.7 -1.8,1.8 -2.1,1.8 -2.4,1.8 -2.8,1.7 -3,1.6 -3.3,1.5 -3.5,1.3 -3.7,1.2 -3.9,1 -4,0.9 -4.1,0.6 -4.2,0.4 -4.3,0.2 -4.3,0 Z M 3,-3.6 C 2.8,-4 2.7,-4.5 2.4,-4.9 2.1,-5.3 1.8,-5.7 1.4,-6 1,-6.3 0.5,-6.5 -0.1,-6.8 -0.6,-7 -1.3,-7.1 -1.9,-7.1 c -0.8,0 -1.5,0.1 -2.2,0.4 -0.7,0.3 -1.3,0.6 -1.8,1.1 -0.5,0.5 -0.9,1.1 -1.2,1.8 -0.3,0.7 -0.4,1.5 -0.4,2.4 0,0.9 0.2,1.6 0.4,2.3 0.3,0.7 0.7,1.3 1.2,1.8 0.5,0.5 1,0.9 1.7,1.1 0.7,0.3 1.3,0.4 2,0.4 1.6,0 3,-0.5 4,-1.5 0.9,-0.9 1.5,-2.3 1.5,-4 V -2 -2.3 h -7.5 c 0,-0.3 0.1,-0.6 0.3,-0.9 0.2,-0.3 0.3,-0.4 0.5,-0.7 0.3,-0.2 0.5,-0.3 0.8,-0.4 0.3,-0.1 0.6,-0.2 0.9,-0.2 0.6,0 1,0.2 1.4,0.4 0.3,0.3 0.6,0.6 0.8,1 z" /></g><g
           transform="translate(109.7,19)"
           id="g56"><path
             id="path58"
             style="fill:#20295c;fill-opacity:1;fill-rule:nonzero;stroke:none"
             d="M 0,0 C -0.2,0 -0.3,0.1 -0.5,0.1 H -1 C -1.3,0.1 -1.7,0 -1.9,-0.1 -2.2,-0.2 -2.5,-0.4 -2.7,-0.6 -3,-0.9 -3.1,-1.1 -3.2,-1.5 -3.4,-1.8 -3.4,-2.4 -3.4,-2.9 V -7.5 H -6.7 V 3.3 h 3.2 V 1.8 c 0.2,0.3 0.3,0.5 0.5,0.8 0.3,0.2 0.4,0.3 0.7,0.5 0.3,0.1 0.5,0.2 0.8,0.3 0.3,0.1 0.5,0.1 0.7,0.1 0.3,0 0.6,0 0.9,-0.1 z" /></g><g
           transform="translate(115.7,22.3)"
           id="g60"><path
             id="path62"
             style="fill:#20295c;fill-opacity:1;fill-rule:nonzero;stroke:none"
             d="M 0,0 H 2.1 V -2.8 H 0 v -4 C 0,-7.2 0.1,-7.6 0.3,-7.7 0.5,-7.9 0.8,-8 1.2,-8 H 1.7 C 1.9,-8 2,-7.9 2,-7.9 v -2.7 c -0.1,0 -0.3,-0.1 -0.5,-0.2 -0.2,-0.1 -0.7,-0.2 -1.2,-0.2 -1.1,0 -2,0.3 -2.7,0.9 -0.6,0.6 -0.9,1.5 -0.9,2.5 V -3 h -1.9 v 2.8 h 0.6 c 0.6,0 0.9,0.2 1.3,0.5 0.3,0.3 0.4,0.8 0.4,1.3 l 0,1.4 H 0 Z" /></g><g
           transform="translate(125,14.3)"
           id="g64"><path
             id="path66"
             style="fill:#20295c;fill-opacity:1;fill-rule:nonzero;stroke:none"
             d="M 0,0 C 0.3,0 0.6,0.1 0.9,0.2 1.2,0.3 1.4,0.5 1.7,0.7 2,1 2.1,1.2 2.2,1.6 2.4,1.9 2.4,2.3 2.4,2.8 2.4,3.2 2.3,3.7 2.2,4 2,4.3 1.9,4.6 1.7,4.9 1.4,5.2 1.2,5.2 0.9,5.4 0.6,5.5 0.3,5.6 0,5.6 -0.3,5.6 -0.6,5.5 -0.9,5.4 -1.2,5.3 -1.4,5.1 -1.7,4.9 -2,4.7 -2.1,4.4 -2.2,4 -2.4,3.7 -2.4,3.3 -2.4,2.8 -2.4,2.3 -2.3,1.9 -2.2,1.6 -2,1.3 -1.9,1 -1.7,0.7 -1.4,0.4 -1.2,0.3 -0.9,0.2 -0.6,0 -0.2,0 0,0 M 0,8.3 C 0.8,8.3 1.5,8.1 2.2,7.9 2.9,7.6 3.5,7.2 4,6.7 4.5,6.2 4.9,5.6 5.2,4.9 5.5,4.2 5.6,3.4 5.6,2.6 5.6,1.7 5.4,1 5.2,0.3 4.9,-0.4 4.5,-1 4,-1.5 3.5,-2 2.9,-2.4 2.2,-2.7 1.5,-3 0.7,-3.1 0,-3.1 c -0.7,0 -1.5,0.2 -2.2,0.4 -0.7,0.3 -1.3,0.7 -1.8,1.2 -0.5,0.5 -0.9,1.1 -1.2,1.8 -0.3,0.7 -0.4,1.5 -0.4,2.3 0,0.8 0.2,1.6 0.4,2.3 0.3,0.7 0.7,1.3 1.2,1.8 0.5,0.5 1.1,0.9 1.8,1.2 0.7,0.2 1.4,0.4 2.2,0.4" /></g><g
           transform="translate(135,15.1)"
           id="g68"><path
             id="path70"
             style="fill:#20295c;fill-opacity:1;fill-rule:nonzero;stroke:none"
             d="m 0,0 c 0,-0.3 0.2,-0.7 0.4,-1 0.3,-0.3 0.7,-0.4 1.2,-0.4 0.4,0 0.7,0.1 0.9,0.3 0.2,0.2 0.3,0.4 0.3,0.7 0,0.2 -0.1,0.3 -0.3,0.5 C 2.3,0.3 2.1,0.4 1.6,0.4 L 0.4,0.7 c -0.6,0.2 -1,0.3 -1.5,0.5 -0.4,0.2 -0.8,0.4 -1,0.8 -0.3,0.3 -0.4,0.6 -0.6,0.9 -0.1,0.3 -0.2,0.7 -0.2,1.1 0,0.5 0.1,0.9 0.3,1.4 0.2,0.4 0.5,0.8 0.9,1.1 0.3,0.3 0.8,0.6 1.3,0.8 0.5,0.2 1,0.3 1.6,0.3 C 2,7.6 2.7,7.5 3.2,7.3 3.7,7.1 4.1,6.8 4.5,6.5 4.8,6.2 5.1,5.8 5.3,5.5 5.5,5.2 5.6,4.8 5.6,4.5 L 2.8,4 C 2.8,4.3 2.6,4.7 2.4,4.9 2.1,5.2 1.8,5.3 1.3,5.3 1,5.3 0.7,5.2 0.4,5 0.1,4.8 0.1,4.6 0.1,4.3 0.1,4 0.2,3.9 0.4,3.8 0.6,3.7 0.7,3.6 1,3.5 L 2.5,3.2 C 3.6,2.9 4.5,2.5 5,1.9 5.5,1.3 5.8,0.6 5.8,-0.2 5.8,-0.6 5.7,-1.1 5.5,-1.6 5.3,-2 5.1,-2.4 4.7,-2.7 4.4,-3 3.9,-3.3 3.3,-3.6 2.8,-3.8 2.2,-3.9 1.4,-3.9 c -0.9,0 -1.5,0.1 -2.2,0.3 -0.6,0.3 -1,0.5 -1.4,0.9 -0.3,0.3 -0.6,0.7 -0.8,1.1 -0.2,0.4 -0.3,0.8 -0.3,1 z" /></g><g
           transform="translate(24.5,46.1)"
           id="g72"><path
             id="path74"
             style="fill:#fdc60d;fill-opacity:1;fill-rule:nonzero;stroke:none"
             d="m 0,0 c 0,0 -0.1,0 0,0 -0.3,0.1 -0.5,0.1 -0.7,0.2 h -0.1 c -0.2,0 -0.5,0.1 -0.7,0.1 h -0.2 -0.8 c -4.8,0 -7,-3.4 -7.7,-4.8 l -6.5,-14.5 -6.9,-16.1 c 0.9,-0.3 1.9,-0.5 3,-0.5 4.3,0 6.5,2.7 7.4,4.3 0.2,0.3 0.3,0.5 0.5,0.8 L -12.5,-30 0.2,0 C 0.2,0 0.1,0 0,0" /></g><g
           transform="translate(37.5,46.1)"
           id="g76"><path
             id="path78"
             style="fill:#2d3289;fill-opacity:1;fill-rule:nonzero;stroke:none"
             d="m 0,0 c 0,0 -0.1,0 0,0 -0.3,0.1 -0.5,0.1 -0.7,0.2 h -0.1 c -0.2,0 -0.5,0.1 -0.7,0.1 h -0.2 -0.8 c -4.8,0 -7,-3.4 -7.7,-4.8 l -3.8,-8.7 -9.6,-22 c 0.9,-0.3 1.9,-0.5 3,-0.5 4.3,0 6.5,2.7 7.4,4.3 0.2,0.3 0.3,0.5 0.5,0.8 l 13,30.4 C 0.3,-0.1 0.1,0 0,0" /></g><g
           transform="translate(50.7,46.1)"
           id="g80"><path
             id="path82"
             style="fill:#e52337;fill-opacity:1;fill-rule:nonzero;stroke:none"
             d="m 0,0 c -0.1,0 -0.1,0 0,0 -0.3,0.1 -0.5,0.1 -0.7,0.2 h -0.1 c -0.2,0 -0.5,0.1 -0.7,0.1 h -0.2 -0.8 c -4.8,0 -7,-3.4 -7.7,-4.8 l -3.8,-8.7 -9.6,-22 c 0.9,-0.3 1.9,-0.5 3,-0.5 4.3,0 6.5,2.7 7.4,4.3 0.2,0.3 0.3,0.5 0.5,0.8 l 13,30.4 C 0.2,-0.1 0.1,0 0,0" /></g></g></g></g></svg>